<svg xmlns="http://www.w3.org/2000/svg" version="1.1" xmlns:xlink="http://www.w3.org/1999/xlink" xmlns:svgjs="http://svgjs.com/svgjs" x="0" y="0" viewBox="0 0 512 512" style="enable-background:new 0 0 512 512" xml:space="preserve" class=""><g><path d="M503.45 249.329c-1.13-1.261-28.159-31.232-72.061-61.557C379.712 152.076 318.297 126 256 126c-62.306 0-123.721 26.083-175.389 61.772-43.903 30.325-70.932 60.296-72.061 61.557a10 10 0 0 0 0 13.342c1.129 1.261 28.158 31.231 72.061 61.557 40.1 27.699 102.184 60.603 171.761 61.72 2.547.07 4.707.07 7.256 0 69.577-1.117 131.661-34.021 171.761-61.72 43.902-30.325 70.932-60.296 72.061-61.557a10 10 0 0 0 0-13.342zM366 256c0 60.611-49.309 110-110 110-60.601 0-110-49.299-110-110 0-60.611 49.308-110 110-110 60.602 0 110 49.299 110 110zm-336.16-.004c10.223-10.309 32.189-31.081 62.138-51.768 19-13.124 43.186-27.488 70.735-38.668-48.988 50.516-48.922 130.429-.004 180.877-27.382-11.113-51.424-25.361-70.324-38.384-30.081-20.727-52.254-41.687-62.545-52.057zm390.182 51.776c-19 13.123-43.185 27.486-70.733 38.667 48.986-50.516 48.92-130.428.003-180.876 27.382 11.112 51.424 25.36 70.323 38.383 30.08 20.728 52.254 41.687 62.545 52.057-10.222 10.311-32.189 31.082-62.138 51.769z" fill="currentColor" data-original="#000000" class=""/><path d="M206 256c0 27.57 22.43 50 50 50s50-22.43 50-50-22.43-50-50-50-50 22.43-50 50zm80 0c0 16.542-13.458 30-30 30s-30-13.458-30-30 13.458-30 30-30 30 13.458 30 30z" fill="currentColor" data-original="#000000" class=""/></g></svg>